# xmcd
#
# Track frame offsets:
#	150
#	17565
#	31852
#	57005
#	77830
#	97765
#	121865
#	137340
#	151540
#	164875
#	177192
#	194357
#
# Disc length: 2882 seconds
#
# Revision: 2
# Processed by: cddbd v1.4PL0 Copyright (c) Steve Scherf et al.
# Submitted via: audiograbber 1.80
#
DISCID=840b400c
DTITLE=Peter Caulton - Raining On The Rock
DYEAR=1900
DGENRE=
TTITLE0=Son Of The South Wind
TTITLE1=Gold Wedding Ring
TTITLE2=The Man In The Long Black Coat
TTITLE3=This Wounded House
TTITLE4=Capricorn Rain
TTITLE5=Between The Saddle And The Ground
TTITLE6=Ruby
TTITLE7=Hard Weather Out There
TTITLE8=North Coast Mail Train
TTITLE9=Travilin' Man
TTITLE10=One For The Kangaroo
TTITLE11=Raining On The Rock
EXTD=
EXTT0=
EXTT1=
EXTT2=
EXTT3=
EXTT4=
EXTT5=
EXTT6=
EXTT7=
EXTT8=
EXTT9=
EXTT10=
EXTT11=
PLAYORDER=
